<svg xmlns="http://www.w3.org/2000/svg" viewBox="0 0 512 512" role="img" aria-labelledby="title">
  <title>Phrabit app icon</title>
  <rect width="512" height="512" fill="#151c2d"/>
  <path
    d="M112 355c-34-38-51-82-51-132C61 113 150 48 259 48c124 0 214 75 214 183 0 109-88 184-214 184-24 0-47-3-69-8l-79 31c-18 7-35-12-25-29l26-54Z"
    fill="#25314a"
  />
  <path
    d="M123 336c-28-32-42-69-42-113 0-96 78-153 178-153 112 0 193 66 193 161 0 96-79 163-193 163-25 0-50-4-73-11l-60 23 24-50c4-8 2-16-7-24Z"
    fill="none"
    stroke="#79f2ca"
    stroke-width="18"
    stroke-linecap="round"
    stroke-linejoin="round"
  />
  <path
    d="M177 351V146h132c68 0 111 41 111 100 0 61-44 101-111 101h-58v4c0 22-18 40-40 40s-34-18-34-40Z"
    fill="#8b96ff"
  />
  <rect x="250" y="190" width="87" height="75" rx="37" fill="#151c2d"/>
  <circle cx="382" cy="346" r="22" fill="#79f2ca"/>
  <path
    d="M388 94c28 13 51 31 69 54"
    fill="none"
    stroke="#8b96ff"
    stroke-width="20"
    stroke-linecap="round"
  />
</svg>
