<svg xmlns="http://www.w3.org/2000/svg" viewBox="0 0 920 580" width="920" height="580">
<rect width="920" height="580" fill="#0f172a"/>
<g stroke="#334155"><line x1="120" y1="100" x2="120" y2="480"/><line x1="800" y1="100" x2="800" y2="480"/><line x1="120" y1="480" x2="800" y2="480"/><line x1="120" y1="100" x2="800" y2="100"/></g>
<g stroke="#94a3b8" stroke-width="2.5" fill="none"><line x1="120" y1="480" x2="800" y2="480"/><line x1="120" y1="480" x2="120" y2="100"/></g>
<g font-family="system-ui,sans-serif" fill="#e2e8f0" font-size="17" font-weight="700">
<text x="300" y="530" text-anchor="middle">教材中心</text>
<text x="620" y="530" text-anchor="middle">ユーザー固有</text>
<text x="48" y="290" text-anchor="middle" transform="rotate(-90 48 290)">反射定着できる</text>
<text x="48" y="410" text-anchor="middle" transform="rotate(-90 48 410)">単発理解で終わる</text>
</g>
<g font-family="system-ui,sans-serif" fill="#38bdf8" font-size="13" font-weight="600"><text x="720" y="125" text-anchor="middle">空白：右上</text></g>
<g font-family="system-ui,sans-serif" font-size="12" font-weight="600">
<circle cx="240" cy="200" r="12" fill="#eab308"/><text x="240" y="175" text-anchor="middle" fill="#cbd5e1">Anki</text>
<circle cx="320" cy="210" r="12" fill="#f97316"/><text x="320" y="185" text-anchor="middle" fill="#cbd5e1">SuperChinese</text>
<circle cx="200" cy="420" r="12" fill="#22c55e"/><text x="200" y="450" text-anchor="middle" fill="#cbd5e1">Duolingo</text>
<circle cx="300" cy="430" r="11" fill="#4ade80"/><text x="300" y="458" text-anchor="middle" fill="#cbd5e1">HelloCN</text>
<circle cx="680" cy="410" r="13" fill="#a855f7"/><text x="680" y="440" text-anchor="middle" fill="#cbd5e1">ChatGPT</text>
<circle cx="760" cy="420" r="11" fill="#38bdf8"/><text x="760" y="448" text-anchor="middle" fill="#cbd5e1">DeepL</text>
<circle cx="720" cy="170" r="20" fill="#0ea5e9" stroke="#fbbf24" stroke-width="3"/>
<text x="720" y="175" text-anchor="middle" fill="#0f172a" font-size="11" font-weight="800">SayItNext</text>
</g>
<g font-family="system-ui,sans-serif" fill="#94a3b8" font-size="10"><text x="460" y="42" text-anchor="middle">軸は customer-discovery 5-3 と同一（概念的座標）</text></g>
</svg>
